<svg width="24" height="24" viewBox="0 0 24 24" fill="none" xmlns="http://www.w3.org/2000/svg">
<g clip-path="url(#clip0_1_2)">
<path d="M17.02 -4.52049e-06C16.7737 -0.00181361 16.5289 0.0398236 16.297 0.122995L2.62301 5.003C2.36288 5.09568 2.12357 5.23874 1.91878 5.42398C1.71398 5.60923 1.54771 5.83303 1.42948 6.08259C1.31125 6.33215 1.24337 6.60257 1.22974 6.87838C1.2161 7.1542 1.25697 7.42999 1.35001 7.69L6.67401 22.606C6.86142 23.1307 7.24957 23.5595 7.7531 23.798C8.25662 24.0366 8.83428 24.0653 9.35901 23.878L17.105 21.113C17.897 20.806 18.45 20.579 18.569 20.505C19.112 20.191 19.531 19.688 20.533 18.171C21.437 16.809 22.392 14.848 22.63 13.891C22.87 12.921 22.869 12.411 22.128 10.216L18.982 1.396C18.8374 0.990336 18.5716 0.638893 18.2207 0.389213C17.8698 0.139533 17.4507 0.00366667 17.02 -4.52049e-06ZM16.936 0.413995C17.656 0.382995 18.336 0.816996 18.593 1.534L21.74 10.354L21.748 10.351C22.019 11.114 22.245 11.766 22.274 11.891C22.376 12.324 21.992 13.038 21.537 13.241C21.337 13.341 20.827 13.534 20.395 13.67C18.998 14.134 18.345 14.549 17.937 15.218C17.574 15.809 17.622 16.398 18.097 17.595C18.559 18.737 18.63 19.459 18.322 19.995C18.209 20.183 18.021 20.317 16.968 20.728L16.966 20.723L9.22001 23.488C9.01135 23.5636 8.78978 23.5971 8.5681 23.5866C8.34642 23.576 8.12902 23.5217 7.92846 23.4267C7.7279 23.3316 7.54816 23.1978 7.39961 23.0329C7.25107 22.868 7.13667 22.6753 7.06301 22.466L1.74001 7.55C1.66442 7.34133 1.63092 7.11976 1.64145 6.89808C1.65198 6.6764 1.70633 6.459 1.80135 6.25844C1.89638 6.05789 2.0302 5.87814 2.19509 5.7296C2.35997 5.58105 2.55266 5.46665 2.76201 5.393L16.436 0.512995C16.601 0.452995 16.77 0.420995 16.936 0.413995ZM15.9 2.25L15.192 2.765L14.697 3.135L14.81 3.449L14.884 3.654L15.407 3.338L15.807 4.45L16.21 5.573L15.851 5.702L15.514 5.822C15.559 5.967 15.73 6.464 15.752 6.486L17.918 5.707L17.68 5.044L17.436 5.132L16.993 5.292L16.659 4.362L15.9 2.25ZM12.61 3.432L11.901 3.947L11.407 4.317L11.52 4.631L11.593 4.836L12.117 4.52L12.517 5.632L12.92 6.755L12.56 6.884L12.223 7.005C12.269 7.149 12.439 7.645 12.461 7.668L14.628 6.89L14.39 6.227L14.146 6.314L13.703 6.474L13.369 5.544L12.61 3.432ZM9.08401 4.786C8.8019 4.78525 8.52506 4.86242 8.28401 5.009C7.55201 5.457 7.43401 6.392 7.95201 7.567C8.28901 8.343 8.82501 8.78499 9.41401 8.78199C10.759 8.77499 11.274 7.383 10.499 5.832C10.192 5.172 9.66201 4.796 9.08401 4.786ZM8.89301 5.458C9.06101 5.449 9.25001 5.543 9.43201 5.737C9.57701 5.892 9.77901 6.247 9.86901 6.524C10.219 7.522 10.033 8.21199 9.45501 8.06999C8.85401 7.92999 8.21001 6 8.62001 5.585C8.69143 5.50932 8.78912 5.46387 8.89301 5.458ZM5.12801 6.208C4.8459 6.20725 4.56906 6.28442 4.32801 6.431C3.59601 6.879 3.47801 7.813 3.99601 8.988C4.33301 9.765 4.86901 10.206 5.45801 10.203C6.80201 10.196 7.31801 8.805 6.54301 7.253C6.23601 6.593 5.70501 6.217 5.12801 6.208ZM4.93601 6.88C5.10401 6.87 5.29401 6.965 5.47601 7.158C5.62101 7.313 5.82301 7.668 5.91301 7.945C6.26301 8.944 6.07701 9.63399 5.49801 9.49199C4.89801 9.35099 4.25501 7.42 4.66401 7.007C4.73519 6.93155 4.83248 6.88613 4.93601 6.88ZM18.298 7.535C18.0159 7.5343 17.7391 7.61147 17.498 7.758C16.766 8.206 16.648 9.14 17.166 10.316C17.503 11.092 18.039 11.534 18.628 11.531C19.973 11.524 20.488 10.132 19.713 8.581C19.406 7.921 18.876 7.545 18.298 7.535ZM18.107 8.207C18.275 8.198 18.464 8.29199 18.646 8.48499C18.791 8.63999 18.993 8.995 19.083 9.272C19.433 10.271 19.247 10.961 18.669 10.819C18.068 10.678 17.425 8.74699 17.834 8.33399C17.9054 8.25832 18.0031 8.21287 18.107 8.207ZM14.341 8.957C14.059 8.95595 13.7822 9.03277 13.541 9.179C12.811 9.627 12.693 10.562 13.21 11.737C13.547 12.513 14.083 12.955 14.672 12.952C16.016 12.945 16.532 11.554 15.757 10.002C15.45 9.342 14.919 8.966 14.341 8.957ZM14.151 9.628C14.318 9.619 14.508 9.71299 14.69 9.90699C14.835 10.062 15.037 10.417 15.127 10.694C15.477 11.692 15.291 12.382 14.712 12.241C14.112 12.099 13.468 10.169 13.877 9.75599C13.9483 9.68003 14.046 9.63424 14.15 9.628H14.151ZM10.405 10.371C10.1229 10.3703 9.84608 10.4475 9.60501 10.594C8.87301 11.042 8.75501 11.976 9.27301 13.151C9.61001 13.928 10.146 14.37 10.735 14.367C12.08 14.36 12.595 12.968 11.82 11.416C11.513 10.756 10.982 10.38 10.405 10.371ZM10.213 11.043C10.382 11.033 10.571 11.128 10.753 11.321C10.898 11.476 11.1 11.831 11.19 12.108C11.54 13.107 11.354 13.797 10.776 13.655C10.175 13.514 9.53201 11.583 9.94101 11.17C10.0122 11.0946 10.1095 11.0491 10.213 11.043ZM6.69801 11.659L5.99001 12.174L5.49501 12.543L5.60801 12.857L5.68201 13.063L6.20601 12.747L6.60501 13.859L7.00801 14.981L6.64901 15.111L6.31201 15.231C6.35701 15.376 6.52801 15.872 6.55001 15.894L8.71601 15.116L8.47801 14.453L8.23401 14.541L7.79101 14.7L7.45701 13.77L6.69801 11.659ZM22.362 12.989C22.396 12.989 22.411 13.036 22.426 13.124C22.449 13.234 22.362 13.669 22.231 14.081C21.762 15.517 20.179 18.305 19.152 19.478L18.744 19.948L18.795 19.281C18.825 18.714 18.779 18.469 18.418 17.571C17.922 16.308 17.885 15.841 18.26 15.261C18.601 14.747 19.288 14.354 20.708 13.89C21.428 13.652 21.883 13.427 22.093 13.226C22.225 13.081 22.3 13.006 22.346 12.991C22.3508 12.9892 22.3559 12.9882 22.361 12.988L22.362 12.989ZM15.933 14.466L15.225 14.981L14.73 15.351L14.843 15.665L14.917 15.87L15.44 15.554L15.84 16.666L16.243 17.789L15.884 17.918L15.547 18.038C15.592 18.183 15.763 18.68 15.785 18.702L17.951 17.923L17.713 17.261L17.469 17.348L17.026 17.508L16.692 16.578L15.933 14.466ZM12.354 15.796C12.0719 15.7953 11.7951 15.8724 11.554 16.019C10.823 16.467 10.705 17.401 11.222 18.577C11.559 19.353 12.095 19.795 12.684 19.792C14.029 19.785 14.544 18.393 13.77 16.842C13.463 16.182 12.932 15.806 12.354 15.796ZM12.163 16.468C12.331 16.459 12.521 16.553 12.703 16.747C12.847 16.901 13.049 17.257 13.14 17.534C13.49 18.532 13.304 19.222 12.725 19.08C12.125 18.939 11.481 17.008 11.89 16.595C11.9614 16.5193 12.0591 16.4739 12.163 16.468ZM8.64801 17.084L7.93801 17.599L7.44401 17.969L7.55701 18.282L7.63101 18.488L8.15501 18.172L8.55501 19.284L8.95801 20.406L8.59801 20.536L8.26101 20.656C8.30601 20.801 8.47701 21.298 8.49901 21.32L10.665 20.541L10.427 19.878L10.183 19.966L9.74001 20.126L9.40601 19.196L8.64801 17.084Z" fill="white"/>
</g>
<defs>
<clipPath id="clip0_1_2">
<rect width="24" height="24" fill="white"/>
</clipPath>
</defs>
</svg>
