<svg xmlns="http://www.w3.org/2000/svg" width="358" height="426" fill="#fff" xmlns:v="https://vecta.io/nano"><path d="M357.572 0c-1.14 17.591-4.55 34.827-10.631 51.403-9.086 24.765-20.746 48.291-37.714 68.648-10.968 13.159-22.716 25.739-34.889 37.797-7.469 7.398-16.018 13.887-24.763 19.772-12.885 8.673-21.012 20.489-25.504 34.969-3.044 9.807-5.886 19.729-7.928 29.781-2.198 10.819-7.922 18.021-17.862 22.732-7.932 3.759-15.352 8.6-22.999 12.961l.319 1.21 20.878-4.592.897 1.847-37.727 23.505 11.833-2.344c-4.147 7.972-9.896 13.429-16.136 18.17-20.428 15.52-43.837 23.982-68.948 28.175-.762.128-1.442.717-2.205.883-.6.129-1.27-.063-2.086-.579 29.266-6.873 56.851-16.989 78.302-39.755l-20.978 4.658c-1.562.355-3.071 1.254-4.617 1.282-1.577.029-3.169-.705-4.754-1.105.955-1.292 1.629-3.16 2.91-3.786l36.976-17.655c.243-.115.414-.381 1.789-1.695l-34.213 8.153-.33-.982 49.868-28.985 13.828-7.864c3.87-2.192 6.126-5.438 7.19-9.803l8.892-35.005c4.4-17.63 14.373-31.266 29.017-41.873 6.856-4.965 13.409-10.428 19.627-16.177 7.729-7.147 15.084-14.712 22.394-22.295 11.771-12.212 21.372-26.074 29.987-40.622 11.439-19.318 20.091-39.81 25.396-61.664l2.914-12.822-16.421 9.273-41.053 23.381c-10.646 5.997-21.027 12.64-32.161 17.559-17.219 7.607-24.471 23.777-34.666 37.508-1.145 1.541-2.17 3.172-3.489 5.112-1.945-4.77-3.854-9.094-5.48-13.522-2.657-7.236-4.593-8.305-11.233-4.919-19.399 9.89-37.517 21.657-52.037 38.135-6.212 7.05-12.369 14.362-17.137 22.394-3.17 5.341-4.141 12.099-5.558 18.345-2.641 11.637-4.883 23.364-7.329 35.046-.091.436-.581.789-1.85 2.423l-2.829-21.101-1.946-.25c-6.267 19.788-10.131 40.263-16.865 60.307l-1.69-21.849-1.331-.361-25.766 96.193-1.719-.407c9.824-44.534 20.742-88.821 32.064-133.179l1.58 21.454.949.209 3.661-13.816c1.769-6.674 3.337-13.411 5.367-20.005 2.119-6.884 4.196-7.466 10.189-2.983l3.929-16.315c2.239-9.635 8.881-16.711 14.512-24.252 4.897-6.559 10.154-13.157 16.423-18.314 10.599-8.719 21.987-16.512 33.323-24.286 4.737-3.248 10.14-5.555 15.333-8.101 6.1-2.991 10.149-1.782 13.914 3.867 3.717 5.578 3.832 5.601 7.476.124 7.872-11.836 17.524-21.063 30.813-27.398 16.495-7.864 31.893-18.025 47.781-27.166l46.827-26.888c.955-.55.5-.5 3.114-1.561 0 0 2.429-1 4.572-1zM0 425.5c17.291-6.142 29.89-17.677 39.986-32.35 12.568-18.267 20.599-38.757 29.073-59.047 4.758-11.391 9.478-22.837 15.021-33.852 10.325-20.519 20.644-41.084 32.121-60.963 7.318-12.675 16.517-24.295 25.222-36.131 14.051-19.104 30.743-35.904 48.09-51.894 20.53-18.925 42.632-35.984 66.725-50.31l33.083-20.203.925 1.293c-1.64 1.31-3.243 2.671-4.926 3.923-19.222 14.306-38.863 28.087-57.553 43.057-14.229 11.397-27.81 23.744-40.685 36.659-18.567 18.626-35.966 38.413-50.066 60.745-11.333 17.951-23.024 35.788-32.78 54.596-15.523 29.928-29.325 60.744-44.334 90.946-8.261 16.623-19.062 31.609-34.265 42.677-5.888 4.286-5.492 3.004-11.637 6.854-2.04.32-9 4-14 4z"/></svg>