<svg width="355" height="425" viewBox="0 0 355 425" fill="none" xmlns="http://www.w3.org/2000/svg">
    <path d="M354.74 14.47H10.31V358.9H354.74V14.47Z" fill="url(#paint0_linear_0_1)"/>
    <path d="M306.07 63.14H58.98V310.23H306.07V63.14Z" fill="#111C1E"/>
    <path d="M59 0.52002C41.7835 0.521161 24.9157 5.37321 10.33 14.52V171.23C24.9157 180.377 41.7835 185.229 59 185.23C109.79 185.23 151.34 143.68 151.34 92.89C151.32 42.08 109.77 0.52002 59 0.52002Z"
          fill="#219FA5"/>
    <path d="M58.98 151.35C91.2776 151.35 117.46 125.168 117.46 92.87C117.46 60.5724 91.2776 34.39 58.98 34.39C26.6824 34.39 0.5 60.5724 0.5 92.87C0.5 125.168 26.6824 151.35 58.98 151.35Z"
          fill="#73C9C9"/>
    <path d="M58.98 118.48C73.124 118.48 84.59 107.014 84.59 92.87C84.59 78.726 73.124 67.26 58.98 67.26C44.836 67.26 33.37 78.726 33.37 92.87C33.37 107.014 44.836 118.48 58.98 118.48Z"
          fill="#A6E8E6"/>
    <path d="M354.74 358.9L151.32 424.37V358.9H354.74Z" fill="url(#paint1_linear_0_1)"/>
    <path d="M146.85 278.08L157.49 265.37C163.32 270.44 170.88 273.94 177.62 273.94C185.36 273.94 189.15 270.89 189.15 266.02C189.15 260.86 184.49 259.21 177.33 256.26L166.67 251.72C158.18 248.26 150.13 241.29 150.13 229.38C150.13 215.79 162.26 204.94 179.33 204.94C189.183 204.961 198.64 208.817 205.7 215.69L196.34 227.37C190.94 223.22 185.81 220.95 179.34 220.95C172.87 220.95 168.88 223.61 168.88 228.3C168.88 233.3 174.24 235.15 181.4 238L191.84 242.23C201.84 246.28 208.1 252.94 208.1 264.53C208.1 278.14 196.75 289.94 177.22 289.94C165.972 289.912 155.14 285.682 146.85 278.08Z"
          fill="#73C9C9"/>
    <path d="M216.06 206.45H234.59V240H235.05L259.48 206.5H279.85L255.05 239.22L284.41 288.48H264.08L244.16 253.8L234.59 266.46V288.46H216.06V206.45Z"
          fill="#73C9C9"/>
    <path opacity="0.16" d="M151.32 358.9H354.74L331.11 366.5L151.32 379.73V358.9Z" fill="#1B514F"/>
    <defs>
        <linearGradient id="paint0_linear_0_1" x1="350.13" y1="350.02" x2="5.29999" y2="13.98"
                        gradientUnits="userSpaceOnUse">
            <stop offset="0.04" stop-color="#3EBBB1"/>
            <stop offset="0.46" stop-color="#31CA86"/>
            <stop offset="0.49" stop-color="#30CB82"/>
            <stop offset="0.65" stop-color="#2AD171"/>
            <stop offset="0.76" stop-color="#28D36B"/>
            <stop offset="0.82" stop-color="#2ED46F"/>
            <stop offset="0.89" stop-color="#40D77B"/>
            <stop offset="0.98" stop-color="#5EDD8F"/>
            <stop offset="1" stop-color="#64DE93"/>
        </linearGradient>
        <linearGradient id="paint1_linear_0_1" x1="264.1" y1="336.9" x2="207.73" y2="448.91"
                        gradientUnits="userSpaceOnUse">
            <stop offset="0.04" stop-color="#006674"/>
            <stop offset="0.46" stop-color="#219FA5"/>
            <stop offset="0.64" stop-color="#34B1A3"/>
            <stop offset="0.79" stop-color="#3EBBA2"/>
        </linearGradient>
    </defs>
</svg>
