<svg width="289" height="246" viewBox="0 0 289 246" fill="none" xmlns="http://www.w3.org/2000/svg">
<path d="M100.5 205.71V245.55C161.59 245.55 230.63 245.55 245.56 245.55C273.5 245.55 288.85 205.72 288.85 205.72V205.71C288.85 205.71 174.19 205.71 100.5 205.71Z" fill="#AF3F45"/>
<path d="M245.55 245.55H36.16C17.3 245.55 3.01002 228.52 6.28002 209.94L43.3 0H288.85L245.55 245.55Z" fill="#D95356"/>
<path d="M66.64 150.22C44.09 145.11 33.86 134.88 33.86 117.21C33.86 93.73 50.6 80.02 79.19 80.02C89.88 80.02 101.04 81.88 109.41 83.74L121.03 86.53C122.89 87 123.82 88.39 123.12 90.25L116.15 114.43C115.68 116.29 114.52 116.99 112.66 116.52L100.8 113.73C94.52 112.34 84.76 111.41 79.18 111.41C73.14 111.41 69.65 113.5 69.65 117.22C69.65 119.54 71.74 122.1 75.69 123.27L95.45 127.92C117.77 133.27 127.76 143.73 127.76 161.86C127.76 185.34 111.02 199.29 82.66 199.29C72.43 199.29 60.11 198.36 47.09 195.11L34.77 192.09C32.91 191.62 31.98 190.23 32.68 188.37L39.65 163.73C40.12 161.87 41.28 161.17 43.14 161.64L54.07 164.43C64.07 166.99 78.25 168.15 82.66 168.15C88.47 168.15 91.72 165.83 91.72 161.87C91.72 158.85 89.63 156.06 84.98 154.9L66.64 150.22Z" fill="white"/>
<path d="M245.1 193.23C246.26 195.32 245.33 196.72 243.01 196.72H209.77C207.91 196.72 206.98 196.02 206.05 194.63L193.5 169.76C188.85 161.16 183.97 155.12 173.28 155.12H171.42V193.71C171.42 195.57 170.26 196.73 168.4 196.73H137.48C135.62 196.73 134.46 195.57 134.46 193.71V30.51C134.46 28.65 135.62 27.49 137.48 27.49H168.4C170.26 27.49 171.42 28.65 171.42 30.51V122.8H173.51C183.51 122.8 187.69 115.13 192.11 106.76L203.5 84.68C204.43 83.28 205.36 82.59 207.22 82.59H240.46C242.78 82.59 243.72 83.98 242.55 86.08L223.95 122.34C219.77 130.24 214.19 134.66 206.98 137.45C206.28 137.68 206.05 138.84 206.98 139.31C214.19 142.56 221.62 147.45 225.34 154.89L245.1 193.23Z" fill="white"/>
<path opacity="0.6" d="M35.3 45.33L274.74 80.02L288.85 0H43.3L35.3 45.33Z" fill="#BC4853"/>
<path d="M288.85 0C288.85 0 73.1 0 43.3 0C13.5 0 0 39.84 0 39.84C0 39.84 217.61 39.84 245.56 39.84C273.51 39.84 288.85 0.01 288.85 0Z" fill="#AF3F45"/>
</svg>
