<svg width="289" height="289" viewBox="0 0 289 289" fill="none" xmlns="http://www.w3.org/2000/svg">
<path d="M100.5 227.71V267.55C161.59 267.55 230.63 267.55 245.56 267.55C273.5 267.55 288.85 227.72 288.85 227.72V227.71C288.85 227.71 174.19 227.71 100.5 227.71Z" fill="#AF3F45"/>
<path d="M245.55 267.55H36.16C17.3 267.55 3.01002 250.52 6.28002 231.94L43.3 22H288.85L245.55 267.55Z" fill="#D95356"/>
<path d="M66.64 172.22C44.09 167.11 33.86 156.88 33.86 139.21C33.86 115.73 50.6 102.02 79.19 102.02C89.88 102.02 101.04 103.88 109.41 105.74L121.03 108.53C122.89 109 123.82 110.39 123.12 112.25L116.15 136.43C115.68 138.29 114.52 138.99 112.66 138.52L100.8 135.73C94.52 134.34 84.76 133.41 79.18 133.41C73.14 133.41 69.65 135.5 69.65 139.22C69.65 141.54 71.74 144.1 75.69 145.27L95.45 149.92C117.77 155.27 127.76 165.73 127.76 183.86C127.76 207.34 111.02 221.29 82.66 221.29C72.43 221.29 60.11 220.36 47.09 217.11L34.77 214.09C32.91 213.62 31.98 212.23 32.68 210.37L39.65 185.73C40.12 183.87 41.28 183.17 43.14 183.64L54.07 186.43C64.07 188.99 78.25 190.15 82.66 190.15C88.47 190.15 91.72 187.83 91.72 183.87C91.72 180.85 89.63 178.06 84.98 176.9L66.64 172.22Z" fill="white"/>
<path d="M245.1 215.23C246.26 217.32 245.33 218.72 243.01 218.72H209.77C207.91 218.72 206.98 218.02 206.05 216.63L193.5 191.76C188.85 183.16 183.97 177.12 173.28 177.12H171.42V215.71C171.42 217.57 170.26 218.73 168.4 218.73H137.48C135.62 218.73 134.46 217.57 134.46 215.71V52.51C134.46 50.65 135.62 49.49 137.48 49.49H168.4C170.26 49.49 171.42 50.65 171.42 52.51V144.8H173.51C183.51 144.8 187.69 137.13 192.11 128.76L203.5 106.68C204.43 105.28 205.36 104.59 207.22 104.59H240.46C242.78 104.59 243.72 105.98 242.55 108.08L223.95 144.34C219.77 152.24 214.19 156.66 206.98 159.45C206.28 159.68 206.05 160.84 206.98 161.31C214.19 164.56 221.62 169.45 225.34 176.89L245.1 215.23Z" fill="white"/>
<path opacity="0.6" d="M35.3 67.33L274.74 102.02L288.85 22H43.3L35.3 67.33Z" fill="#BC4853"/>
<path d="M288.85 22C288.85 22 73.1 22 43.3 22C13.5 22 0 61.84 0 61.84C0 61.84 217.61 61.84 245.56 61.84C273.51 61.84 288.85 22.01 288.85 22Z" fill="#AF3F45"/>
</svg>
